# xmcd
#
# Track frame offsets:
#	150
#	14461
#	26345
#	41489
#	56954
#	75346
#	90420
#	109400
#	120622
#	141595
#	153009
#	183817
#
# Disc length: 2877 seconds
#
# Revision: 1
# Processed by: cddbd v1.5.1PL2 Copyright (c) Steve Scherf et al.
# Submitted via: audiograbber 1.83.01
#
DISCID=900b3b0c
DTITLE=Peter, Paul and Mary - In These Times
DYEAR=2004
DGENRE=Folk
TTITLE0=Wayfaring Stranger
TTITLE1=Some Walls
TTITLE2=Of This World
TTITLE3=Jesus Is On The Wire
TTITLE4=It's Magic
TTITLE5=Invisible People
TTITLE6=How Can I Keep Them From Singing - The Great Storm Is Over
TTITLE7=Have You Been To Jail For Justice
TTITLE8=Don't Laugh At Me
TTITLE9=All God's Critters
TTITLE10=Union Medley
TTITLE11=Had I A Golden Thread
EXTD=
EXTT0=
EXTT1=
EXTT2=
EXTT3=
EXTT4=
EXTT5=
EXTT6=
EXTT7=
EXTT8=
EXTT9=
EXTT10=
EXTT11=
PLAYORDER=
